{
  "accessors": [
    {
      "bufferView": 1,
      "componentType": 5126,
      "count": 21770,
      "max": [
        1.4201899766921997,
        -2.326659917831421,
        0.7421200275421143
      ],
      "min": [
        -1.4201899766921997,
        -3.4252700805664063,
        0.1691800057888031
      ],
      "type": "VEC3"
    },
    {
      "bufferView": 1,
      "byteOffset": 261240,
      "componentType": 5126,
      "count": 21770,
      "max": [
        1.0,
        0.9999997019767761,
        0.9999999403953552
      ],
      "min": [
        -1.0,
        -1.0,
        -1.0
      ],
      "type": "VEC3"
    },
    {
      "bufferView": 0,
      "componentType": 5125,
      "count": 130656,
      "type": "SCALAR"
    },
    {
      "bufferView": 1,
      "byteOffset": 522480,
      "componentType": 5126,
      "count": 1354,
      "max": [
        1.4201899766921997,
        -2.302720069885254,
        0.7508800029754639
      ],
      "min": [
        -1.4201899766921997,
        -3.4433200359344482,
        0.1691800057888031
      ],
      "type": "VEC3"
    },
    {
      "bufferView": 1,
      "byteOffset": 538728,
      "componentType": 5126,
      "count": 1354,
      "max": [
        1.0,
        0.9999285936355591,
        0.9999995827674866
      ],
      "min": [
        -1.0,
        -0.9999983906745911,
        -1.0
      ],
      "type": "VEC3"
    },
    {
      "bufferView": 0,
      "byteOffset": 522624,
      "componentType": 5125,
      "count": 8160,
      "type": "SCALAR"
    }
  ],
  "asset": {
    "extras": {
      "author": "baukepost (https://sketchfab.com/baukepost)",
      "license": "CC-BY-4.0 (http://creativecommons.org/licenses/by/4.0/)",
      "source": "https://sketchfab.com/3d-models/bumper-wip-cd8217044701437785564a5e54532888",
      "title": "Bumper wip"
    },
    "generator": "Sketchfab-12.68.0",
    "version": "2.0"
  },
  "bufferViews": [
    {
      "buffer": 0,
      "byteLength": 555264,
      "name": "floatBufferViews",
      "target": 34963
    },
    {
      "buffer": 0,
      "byteLength": 554976,
      "byteOffset": 555264,
      "byteStride": 12,
      "name": "floatBufferViews",
      "target": 34962
    }
  ],
  "buffers": [
    {
      "byteLength": 1110240,
      "uri": "scene.bin"
    }
  ],
  "materials": [
    {
      "doubleSided": true,
      "name": "Scene_-_Root",
      "pbrMetallicRoughness": {
        "metallicFactor": 0.0,
        "roughnessFactor": 0.6
      }
    }
  ],
  "meshes": [
    {
      "name": "Suzanne.004_0",
      "primitives": [
        {
          "attributes": {
            "NORMAL": 1,
            "POSITION": 0
          },
          "indices": 2,
          "material": 0,
          "mode": 4
        }
      ]
    },
    {
      "name": "Suzanne.014_0",
      "primitives": [
        {
          "attributes": {
            "NORMAL": 4,
            "POSITION": 3
          },
          "indices": 5,
          "material": 0,
          "mode": 4
        }
      ]
    }
  ],
  "nodes": [
    {
      "children": [
        1
      ],
      "matrix": [
        1.0,
        0.0,
        0.0,
        0.0,
        0.0,
        2.220446049250313e-16,
        -1.0,
        0.0,
        0.0,
        1.0,
        2.220446049250313e-16,
        0.0,
        0.0,
        0.0,
        0.0,
        1.0
      ],
      "name": "Sketchfab_model"
    },
    {
      "children": [
        2,
        4
      ],
      "name": "Root"
    },
    {
      "children": [
        3
      ],
      "name": "Suzanne.004"
    },
    {
      "mesh": 0,
      "name": "Suzanne.004_0"
    },
    {
      "children": [
        5
      ],
      "matrix": [
        1.0,
        0.0,
        0.0,
        0.0,
        0.0,
        1.0,
        0.0,
        0.0,
        0.0,
        0.0,
        1.0,
        0.0,
        3.67159,
        0.0,
        0.0,
        1.0
      ],
      "name": "Suzanne.014"
    },
    {
      "mesh": 1,
      "name": "Suzanne.014_0"
    }
  ],
  "scene": 0,
  "scenes": [
    {
      "name": "Sketchfab_Scene",
      "nodes": [
        0
      ]
    }
  ]
}
