{
  "accessors": [
    {
      "bufferView": 2,
      "componentType": 5126,
      "count": 26004,
      "max": [
        48.862064361572266,
        108.35862731933594,
        108.33211517333984
      ],
      "min": [
        -36.006980895996094,
        -108.25257873535156,
        -108.35862731933594
      ],
      "type": "VEC3"
    },
    {
      "bufferView": 2,
      "byteOffset": 312048,
      "componentType": 5126,
      "count": 26004,
      "max": [
        1.0,
        1.0,
        1.0
      ],
      "min": [
        -1.0,
        -1.0,
        -1.0
      ],
      "type": "VEC3"
    },
    {
      "bufferView": 1,
      "componentType": 5126,
      "count": 26004,
      "max": [
        0.8438129425048828,
        0.7756701111793518
      ],
      "min": [
        0.0011097448877990246,
        0.002036533784121275
      ],
      "type": "VEC2"
    },
    {
      "bufferView": 0,
      "componentType": 5125,
      "count": 104775,
      "type": "SCALAR"
    },
    {
      "bufferView": 2,
      "byteOffset": 624096,
      "componentType": 5126,
      "count": 412,
      "max": [
        -35.16272735595703,
        90.81729125976563,
        90.84382629394531
      ],
      "min": [
        -36.006980895996094,
        -90.81729125976563,
        -90.73773956298828
      ],
      "type": "VEC3"
    },
    {
      "bufferView": 2,
      "byteOffset": 629040,
      "componentType": 5126,
      "count": 412,
      "max": [
        -0.6709632277488708,
        0.7357898950576782,
        0.734711229801178
      ],
      "min": [
        -0.9998175501823425,
        -0.7357898950576782,
        -0.7342751622200012
      ],
      "type": "VEC3"
    },
    {
      "bufferView": 1,
      "byteOffset": 208032,
      "componentType": 5126,
      "count": 412,
      "max": [
        0.7033368945121765,
        0.6188410520553589
      ],
      "min": [
        0.18339425325393677,
        0.2656157612800598
      ],
      "type": "VEC2"
    },
    {
      "bufferView": 0,
      "byteOffset": 419100,
      "componentType": 5125,
      "count": 1821,
      "type": "SCALAR"
    },
    {
      "bufferView": 2,
      "byteOffset": 633984,
      "componentType": 5126,
      "count": 1585,
      "max": [
        50.481292724609375,
        100.05252075195313,
        100.02659606933594
      ],
      "min": [
        47.842567443847656,
        -99.9488296508789,
        -100.05252075195313
      ],
      "type": "VEC3"
    },
    {
      "bufferView": 2,
      "byteOffset": 653004,
      "componentType": 5126,
      "count": 1585,
      "max": [
        1.0,
        0.9994410276412964,
        1.0
      ],
      "min": [
        1.156482272142781e-13,
        -0.9994410276412964,
        -1.0
      ],
      "type": "VEC3"
    },
    {
      "bufferView": 1,
      "byteOffset": 211328,
      "componentType": 5126,
      "count": 1585,
      "max": [
        0.7642156481742859,
        0.7642156481742859
      ],
      "min": [
        0.18923401832580566,
        0.19751253724098206
      ],
      "type": "VEC2"
    },
    {
      "bufferView": 0,
      "byteOffset": 426384,
      "componentType": 5125,
      "count": 7365,
      "type": "SCALAR"
    },
    {
      "bufferView": 2,
      "byteOffset": 672024,
      "componentType": 5126,
      "count": 1595,
      "max": [
        -34.95743179321289,
        100.05252075195313,
        100.05252075195313
      ],
      "min": [
        -37.182899475097656,
        -100.05252075195313,
        -100.05252075195313
      ],
      "type": "VEC3"
    },
    {
      "bufferView": 2,
      "byteOffset": 691164,
      "componentType": 5126,
      "count": 1595,
      "max": [
        -7.709881927222932e-15,
        0.9994410276412964,
        1.0
      ],
      "min": [
        -0.9999985694885254,
        -0.9994410276412964,
        -1.0
      ],
      "type": "VEC3"
    },
    {
      "bufferView": 1,
      "byteOffset": 224008,
      "componentType": 5126,
      "count": 1595,
      "max": [
        0.7756149172782898,
        0.7756149172782898
      ],
      "min": [
        0.18892700970172882,
        0.18923401832580566
      ],
      "type": "VEC2"
    },
    {
      "bufferView": 0,
      "byteOffset": 455844,
      "componentType": 5125,
      "count": 7287,
      "type": "SCALAR"
    },
    {
      "bufferView": 2,
      "byteOffset": 710304,
      "componentType": 5126,
      "count": 1537,
      "max": [
        51.069671630859375,
        101.97479248046875,
        101.95117950439453
      ],
      "min": [
        -37.45791244506836,
        -101.88037109375,
        -101.97479248046875
      ],
      "type": "VEC3"
    },
    {
      "bufferView": 2,
      "byteOffset": 728748,
      "componentType": 5126,
      "count": 1537,
      "max": [
        0.9987277388572693,
        0.8256714940071106,
        0.8256714940071106
      ],
      "min": [
        -0.9971012473106384,
        -0.8256714940071106,
        -0.8256714940071106
      ],
      "type": "VEC3"
    },
    {
      "bufferView": 1,
      "byteOffset": 236768,
      "componentType": 5126,
      "count": 1537,
      "max": [
        0.7904622554779053,
        0.7743991017341614
      ],
      "min": [
        0.20447753369808197,
        0.21980933845043182
      ],
      "type": "VEC2"
    },
    {
      "bufferView": 0,
      "byteOffset": 484992,
      "componentType": 5125,
      "count": 7554,
      "type": "SCALAR"
    },
    {
      "bufferView": 2,
      "byteOffset": 747192,
      "componentType": 5126,
      "count": 1598,
      "max": [
        50.45123291015625,
        114.66666412353516,
        114.64012145996094
      ],
      "min": [
        -36.5931282043457,
        -114.56050109863281,
        -114.64012145996094
      ],
      "type": "VEC3"
    },
    {
      "bufferView": 2,
      "byteOffset": 766368,
      "componentType": 5126,
      "count": 1598,
      "max": [
        0.9271911382675171,
        0.9997267723083496,
        0.9994953274726868
      ],
      "min": [
        -0.8988032341003418,
        -0.9988011121749878,
        -0.9994953274726868
      ],
      "type": "VEC3"
    },
    {
      "bufferView": 1,
      "byteOffset": 249064,
      "componentType": 5126,
      "count": 1598,
      "max": [
        0.9175371527671814,
        0.8639664053916931
      ],
      "min": [
        0.2801078259944916,
        0.3345727324485779
      ],
      "type": "VEC2"
    },
    {
      "bufferView": 0,
      "byteOffset": 515208,
      "componentType": 5125,
      "count": 8736,
      "type": "SCALAR"
    },
    {
      "bufferView": 2,
      "byteOffset": 785544,
      "componentType": 5126,
      "count": 1680,
      "max": [
        -7.724339008331299,
        16.111873626708984,
        15.50169849395752
      ],
      "min": [
        -10.789365768432617,
        -13.822877883911133,
        -15.524676322937012
      ],
      "type": "VEC3"
    },
    {
      "bufferView": 2,
      "byteOffset": 805704,
      "componentType": 5126,
      "count": 1680,
      "max": [
        0.004416103474795818,
        1.0,
        1.0
      ],
      "min": [
        -0.9941594004631042,
        -1.0,
        -1.0
      ],
      "type": "VEC3"
    },
    {
      "bufferView": 1,
      "byteOffset": 261848,
      "componentType": 5126,
      "count": 1680,
      "max": [
        0.03395684435963631,
        0.03393713757395744
      ],
      "min": [
        0.010235439985990524,
        0.010263003408908844
      ],
      "type": "VEC2"
    },
    {
      "bufferView": 0,
      "byteOffset": 550152,
      "componentType": 5125,
      "count": 8370,
      "type": "SCALAR"
    },
    {
      "bufferView": 2,
      "byteOffset": 825864,
      "componentType": 5126,
      "count": 1390,
      "max": [
        -6.75,
        10.876184463500977,
        -6.53253698348999
      ],
      "min": [
        -11.469636917114258,
        -1.4359300136566162,
        -18.286998748779297
      ],
      "type": "VEC3"
    },
    {
      "bufferView": 2,
      "byteOffset": 842544,
      "componentType": 5126,
      "count": 1390,
      "max": [
        1.0,
        0.9998045563697815,
        0.9999987483024597
      ],
      "min": [
        -1.0,
        -0.9999666213989258,
        -0.999859631061554
      ],
      "type": "VEC3"
    },
    {
      "bufferView": 1,
      "byteOffset": 275288,
      "componentType": 5126,
      "count": 1390,
      "max": [
        0.046226438134908676,
        0.0470556877553463
      ],
      "min": [
        0.0006668094429187477,
        0.002226119162514806
      ],
      "type": "VEC2"
    },
    {
      "bufferView": 0,
      "byteOffset": 583632,
      "componentType": 5125,
      "count": 5556,
      "type": "SCALAR"
    },
    {
      "bufferView": 2,
      "byteOffset": 859224,
      "componentType": 5126,
      "count": 1426,
      "max": [
        -6.75,
        10.876184463500977,
        18.286998748779297
      ],
      "min": [
        -11.469636917114258,
        -1.4359300136566162,
        6.53253698348999
      ],
      "type": "VEC3"
    },
    {
      "bufferView": 2,
      "byteOffset": 876336,
      "componentType": 5126,
      "count": 1426,
      "max": [
        1.0,
        0.9998045563697815,
        0.999859631061554
      ],
      "min": [
        -1.0,
        -0.9999666213989258,
        -0.9999987483024597
      ],
      "type": "VEC3"
    },
    {
      "bufferView": 1,
      "byteOffset": 286408,
      "componentType": 5126,
      "count": 1426,
      "max": [
        0.04625106602907181,
        0.0470556877553463
      ],
      "min": [
        0.0007749756914563477,
        0.0027104662731289864
      ],
      "type": "VEC2"
    },
    {
      "bufferView": 0,
      "byteOffset": 605856,
      "componentType": 5125,
      "count": 5766,
      "type": "SCALAR"
    },
    {
      "bufferView": 2,
      "byteOffset": 893448,
      "componentType": 5126,
      "count": 1301,
      "max": [
        -6.75,
        -4.769718170166016,
        14.887022972106934
      ],
      "min": [
        -11.469636917114258,
        -17.440616607666016,
        2.0240557193756104
      ],
      "type": "VEC3"
    },
    {
      "bufferView": 2,
      "byteOffset": 909060,
      "componentType": 5126,
      "count": 1301,
      "max": [
        1.0,
        0.9999362230300903,
        0.9999462366104126
      ],
      "min": [
        -1.0,
        -0.9999943971633911,
        -0.9999638199806213
      ],
      "type": "VEC3"
    },
    {
      "bufferView": 1,
      "byteOffset": 297816,
      "componentType": 5126,
      "count": 1301,
      "max": [
        0.04962803050875664,
        0.04934917762875557
      ],
      "min": [
        0.0016118214698508382,
        0.00124663719907403
      ],
      "type": "VEC2"
    },
    {
      "bufferView": 0,
      "byteOffset": 628920,
      "componentType": 5125,
      "count": 5082,
      "type": "SCALAR"
    },
    {
      "bufferView": 2,
      "byteOffset": 924672,
      "componentType": 5126,
      "count": 1454,
      "max": [
        -6.75,
        18.284595489501953,
        5.800709247589111
      ],
      "min": [
        -11.469636917114258,
        7.140146255493164,
        -5.800709247589111
      ],
      "type": "VEC3"
    },
    {
      "bufferView": 2,
      "byteOffset": 942120,
      "componentType": 5126,
      "count": 1454,
      "max": [
        1.0,
        1.0,
        0.9999693632125854
      ],
      "min": [
        -1.0,
        -1.0,
        -0.9999693632125854
      ],
      "type": "VEC3"
    },
    {
      "bufferView": 1,
      "byteOffset": 308224,
      "componentType": 5126,
      "count": 1454,
      "max": [
        0.044415511190891266,
        0.04375878721475601
      ],
      "min": [
        0.00202181632630527,
        0.0007034769514575601
      ],
      "type": "VEC2"
    },
    {
      "bufferView": 0,
      "byteOffset": 649248,
      "componentType": 5125,
      "count": 5886,
      "type": "SCALAR"
    },
    {
      "bufferView": 2,
      "byteOffset": 959568,
      "componentType": 5126,
      "count": 1336,
      "max": [
        -6.75,
        -4.769718170166016,
        -2.0240557193756104
      ],
      "min": [
        -11.469636917114258,
        -17.440616607666016,
        -14.887022972106934
      ],
      "type": "VEC3"
    },
    {
      "bufferView": 2,
      "byteOffset": 975600,
      "componentType": 5126,
      "count": 1336,
      "max": [
        1.0,
        0.9999362230300903,
        0.9999638199806213
      ],
      "min": [
        -1.0,
        -0.9999943971633911,
        -0.9999462366104126
      ],
      "type": "VEC3"
    },
    {
      "bufferView": 1,
      "byteOffset": 319856,
      "componentType": 5126,
      "count": 1336,
      "max": [
        0.04961436614394188,
        0.04934917762875557
      ],
      "min": [
        0.0009622135548852384,
        0.001475358265452087
      ],
      "type": "VEC2"
    },
    {
      "bufferView": 0,
      "byteOffset": 672792,
      "componentType": 5125,
      "count": 5286,
      "type": "SCALAR"
    }
  ],
  "asset": {
    "extras": {
      "author": "3DDomino (https://sketchfab.com/3DDomino)",
      "license": "CC-BY-4.0 (http://creativecommons.org/licenses/by/4.0/)",
      "source": "https://sketchfab.com/3d-models/rim-1e910698e1974d81869d3fb873360af3",
      "title": "Rim"
    },
    "generator": "Sketchfab-12.68.0",
    "version": "2.0"
  },
  "bufferViews": [
    {
      "buffer": 0,
      "byteLength": 693936,
      "name": "floatBufferViews",
      "target": 34963
    },
    {
      "buffer": 0,
      "byteLength": 330544,
      "byteOffset": 693936,
      "byteStride": 8,
      "name": "floatBufferViews",
      "target": 34962
    },
    {
      "buffer": 0,
      "byteLength": 991632,
      "byteOffset": 1024480,
      "byteStride": 12,
      "name": "floatBufferViews",
      "target": 34962
    }
  ],
  "buffers": [
    {
      "byteLength": 2016112,
      "uri": "scene.bin"
    }
  ],
  "materials": [
    {
      "doubleSided": true,
      "name": "Steel_Rough",
      "pbrMetallicRoughness": {
        "baseColorFactor": [
          0.619608,
          0.592157,
          0.572549,
          1.0
        ],
        "roughnessFactor": 0.3902726349646438
      }
    },
    {
      "doubleSided": true,
      "name": "Steel_Polished",
      "pbrMetallicRoughness": {
        "baseColorFactor": [
          0.619608,
          0.592157,
          0.572549,
          1.0
        ],
        "roughnessFactor": 0.46323471292462404
      }
    },
    {
      "doubleSided": true,
      "name": "Tire",
      "pbrMetallicRoughness": {
        "baseColorFactor": [
          0.0025,
          0.0025,
          0.0025,
          1.0
        ],
        "metallicFactor": 0.0,
        "roughnessFactor": 0.9577051494623774
      }
    },
    {
      "doubleSided": true,
      "name": "Tire_0",
      "pbrMetallicRoughness": {
        "baseColorFactor": [
          0.0025,
          0.0025,
          0.0025,
          1.0
        ],
        "metallicFactor": 0.0,
        "roughnessFactor": 0.9577051494623774
      }
    },
    {
      "doubleSided": true,
      "name": "Tire_1",
      "pbrMetallicRoughness": {
        "baseColorFactor": [
          0.0025,
          0.0025,
          0.0025,
          1.0
        ],
        "metallicFactor": 0.0,
        "roughnessFactor": 0.9577051494623774
      }
    },
    {
      "doubleSided": true,
      "name": "Tire_2",
      "pbrMetallicRoughness": {
        "baseColorFactor": [
          0.0025,
          0.0025,
          0.0025,
          1.0
        ],
        "metallicFactor": 0.0,
        "roughnessFactor": 0.6517200809879065
      }
    },
    {
      "doubleSided": true,
      "name": "Steel_Rough_0",
      "pbrMetallicRoughness": {
        "baseColorFactor": [
          0.619608,
          0.592157,
          0.572549,
          1.0
        ],
        "roughnessFactor": 0.444994193434629
      }
    },
    {
      "doubleSided": true,
      "name": "Steel_Rough_1",
      "pbrMetallicRoughness": {
        "baseColorFactor": [
          0.619608,
          0.592157,
          0.572549,
          1.0
        ],
        "roughnessFactor": 0.43891402027129733
      }
    },
    {
      "doubleSided": true,
      "name": "Steel_Rough_2",
      "pbrMetallicRoughness": {
        "baseColorFactor": [
          0.619608,
          0.592157,
          0.572549,
          1.0
        ],
        "roughnessFactor": 0.4267536739446339
      }
    },
    {
      "doubleSided": true,
      "name": "Steel_Rough_3",
      "pbrMetallicRoughness": {
        "baseColorFactor": [
          0.619608,
          0.592157,
          0.572549,
          1.0
        ],
        "roughnessFactor": 0.4206735007813023
      }
    },
    {
      "doubleSided": true,
      "name": "Steel_Rough_4",
      "pbrMetallicRoughness": {
        "baseColorFactor": [
          0.619608,
          0.592157,
          0.572549,
          1.0
        ],
        "roughnessFactor": 0.4206735007813023
      }
    },
    {
      "doubleSided": true,
      "name": "Steel_Rough_5",
      "pbrMetallicRoughness": {
        "baseColorFactor": [
          0.619608,
          0.592157,
          0.572549,
          1.0
        ],
        "roughnessFactor": 0.4206735007813023
      }
    }
  ],
  "meshes": [
    {
      "name": "felna_Steel Rough_0",
      "primitives": [
        {
          "attributes": {
            "NORMAL": 1,
            "POSITION": 0,
            "TEXCOORD_0": 2
          },
          "indices": 3,
          "material": 0,
          "mode": 4
        }
      ]
    },
    {
      "name": "felna_Steel Polished_0",
      "primitives": [
        {
          "attributes": {
            "NORMAL": 5,
            "POSITION": 4,
            "TEXCOORD_0": 6
          },
          "indices": 7,
          "material": 1,
          "mode": 4
        }
      ]
    },
    {
      "name": "felna_Tire_0",
      "primitives": [
        {
          "attributes": {
            "NORMAL": 9,
            "POSITION": 8,
            "TEXCOORD_0": 10
          },
          "indices": 11,
          "material": 2,
          "mode": 4
        }
      ]
    },
    {
      "name": "felna_Tire_0",
      "primitives": [
        {
          "attributes": {
            "NORMAL": 13,
            "POSITION": 12,
            "TEXCOORD_0": 14
          },
          "indices": 15,
          "material": 3,
          "mode": 4
        }
      ]
    },
    {
      "name": "felna_Tire_0",
      "primitives": [
        {
          "attributes": {
            "NORMAL": 17,
            "POSITION": 16,
            "TEXCOORD_0": 18
          },
          "indices": 19,
          "material": 4,
          "mode": 4
        }
      ]
    },
    {
      "name": "felna_Tire_0",
      "primitives": [
        {
          "attributes": {
            "NORMAL": 21,
            "POSITION": 20,
            "TEXCOORD_0": 22
          },
          "indices": 23,
          "material": 5,
          "mode": 4
        }
      ]
    },
    {
      "name": "felna_Steel Rough_0",
      "primitives": [
        {
          "attributes": {
            "NORMAL": 25,
            "POSITION": 24,
            "TEXCOORD_0": 26
          },
          "indices": 27,
          "material": 6,
          "mode": 4
        }
      ]
    },
    {
      "name": "felna_Steel Rough_0",
      "primitives": [
        {
          "attributes": {
            "NORMAL": 29,
            "POSITION": 28,
            "TEXCOORD_0": 30
          },
          "indices": 31,
          "material": 7,
          "mode": 4
        }
      ]
    },
    {
      "name": "felna_Steel Rough_0",
      "primitives": [
        {
          "attributes": {
            "NORMAL": 33,
            "POSITION": 32,
            "TEXCOORD_0": 34
          },
          "indices": 35,
          "material": 8,
          "mode": 4
        }
      ]
    },
    {
      "name": "felna_Steel Rough_0",
      "primitives": [
        {
          "attributes": {
            "NORMAL": 37,
            "POSITION": 36,
            "TEXCOORD_0": 38
          },
          "indices": 39,
          "material": 9,
          "mode": 4
        }
      ]
    },
    {
      "name": "felna_Steel Rough_0",
      "primitives": [
        {
          "attributes": {
            "NORMAL": 41,
            "POSITION": 40,
            "TEXCOORD_0": 42
          },
          "indices": 43,
          "material": 10,
          "mode": 4
        }
      ]
    },
    {
      "name": "felna_Steel Rough_0",
      "primitives": [
        {
          "attributes": {
            "NORMAL": 45,
            "POSITION": 44,
            "TEXCOORD_0": 46
          },
          "indices": 47,
          "material": 11,
          "mode": 4
        }
      ]
    }
  ],
  "nodes": [
    {
      "children": [
        1
      ],
      "matrix": [
        1.0,
        0.0,
        0.0,
        0.0,
        0.0,
        2.220446049250313e-16,
        -1.0,
        0.0,
        0.0,
        1.0,
        2.220446049250313e-16,
        0.0,
        0.0,
        0.0,
        0.0,
        1.0
      ],
      "name": "Sketchfab_model"
    },
    {
      "children": [
        2
      ],
      "matrix": [
        1.0,
        0.0,
        0.0,
        0.0,
        0.0,
        0.0,
        1.0,
        0.0,
        0.0,
        -1.0,
        0.0,
        0.0,
        0.0,
        0.0,
        0.0,
        1.0
      ],
      "name": "8064b42722f44c33b31466c8c4171d97.fbx"
    },
    {
      "children": [
        3
      ],
      "name": "RootNode"
    },
    {
      "children": [
        4
      ],
      "name": "Default"
    },
    {
      "children": [
        5
      ],
      "matrix": [
        1.0,
        0.0,
        0.0,
        0.0,
        0.0,
        1.0,
        0.0,
        0.0,
        0.0,
        0.0,
        1.0,
        0.0,
        -6.805879592895508,
        114.56050109863281,
        0.0,
        1.0
      ],
      "name": "felna"
    },
    {
      "children": [
        6,
        9,
        12,
        15,
        18,
        21,
        24,
        27,
        30,
        33,
        36,
        39
      ],
      "name": "felna"
    },
    {
      "children": [
        7
      ],
      "name": "felna"
    },
    {
      "children": [
        8
      ],
      "name": "felna"
    },
    {
      "mesh": 0,
      "name": "felna_Steel Rough_0"
    },
    {
      "children": [
        10
      ],
      "name": "felna"
    },
    {
      "children": [
        11
      ],
      "name": "felna"
    },
    {
      "mesh": 1,
      "name": "felna_Steel Polished_0"
    },
    {
      "children": [
        13
      ],
      "name": "felna"
    },
    {
      "children": [
        14
      ],
      "name": "felna"
    },
    {
      "mesh": 2,
      "name": "felna_Tire_0"
    },
    {
      "children": [
        16
      ],
      "name": "felna"
    },
    {
      "children": [
        17
      ],
      "name": "felna"
    },
    {
      "mesh": 3,
      "name": "felna_Tire_0"
    },
    {
      "children": [
        19
      ],
      "name": "felna"
    },
    {
      "children": [
        20
      ],
      "name": "felna"
    },
    {
      "mesh": 4,
      "name": "felna_Tire_0"
    },
    {
      "children": [
        22
      ],
      "name": "felna"
    },
    {
      "children": [
        23
      ],
      "name": "felna"
    },
    {
      "mesh": 5,
      "name": "felna_Tire_0"
    },
    {
      "children": [
        25
      ],
      "name": "felna"
    },
    {
      "children": [
        26
      ],
      "name": "felna"
    },
    {
      "mesh": 6,
      "name": "felna_Steel Rough_0"
    },
    {
      "children": [
        28
      ],
      "name": "felna"
    },
    {
      "children": [
        29
      ],
      "name": "felna"
    },
    {
      "mesh": 7,
      "name": "felna_Steel Rough_0"
    },
    {
      "children": [
        31
      ],
      "name": "felna"
    },
    {
      "children": [
        32
      ],
      "name": "felna"
    },
    {
      "mesh": 8,
      "name": "felna_Steel Rough_0"
    },
    {
      "children": [
        34
      ],
      "name": "felna"
    },
    {
      "children": [
        35
      ],
      "name": "felna"
    },
    {
      "mesh": 9,
      "name": "felna_Steel Rough_0"
    },
    {
      "children": [
        37
      ],
      "name": "felna"
    },
    {
      "children": [
        38
      ],
      "name": "felna"
    },
    {
      "mesh": 10,
      "name": "felna_Steel Rough_0"
    },
    {
      "children": [
        40
      ],
      "name": "felna"
    },
    {
      "children": [
        41
      ],
      "name": "felna"
    },
    {
      "mesh": 11,
      "name": "felna_Steel Rough_0"
    }
  ],
  "scene": 0,
  "scenes": [
    {
      "name": "Sketchfab_Scene",
      "nodes": [
        0
      ]
    }
  ]
}
