{
  "accessors": [
    {
      "bufferView": 2,
      "componentType": 5126,
      "count": 3097,
      "max": [
        0.8899959921836853,
        0.3830159902572632,
        0.75
      ],
      "min": [
        -0.8899959921836853,
        -0.30992498993873596,
        0.054492998868227005
      ],
      "type": "VEC3"
    },
    {
      "bufferView": 2,
      "byteOffset": 37164,
      "componentType": 5126,
      "count": 3097,
      "max": [
        1.0,
        1.0,
        1.0
      ],
      "min": [
        -1.0,
        -1.0,
        -1.0
      ],
      "type": "VEC3"
    },
    {
      "bufferView": 1,
      "componentType": 5126,
      "count": 3097,
      "max": [
        8.409576416015625,
        8.182833671569824
      ],
      "min": [
        -8.409576416015625,
        -2.9284861087799072
      ],
      "type": "VEC2"
    },
    {
      "bufferView": 0,
      "componentType": 5125,
      "count": 8496,
      "type": "SCALAR"
    },
    {
      "bufferView": 2,
      "byteOffset": 74328,
      "componentType": 5126,
      "count": 2585,
      "max": [
        0.42250001430511475,
        0.3820689916610718,
        0.75
      ],
      "min": [
        -0.42250001430511475,
        -0.288998007774353,
        0.3690029978752136
      ],
      "type": "VEC3"
    },
    {
      "bufferView": 2,
      "byteOffset": 105348,
      "componentType": 5126,
      "count": 2585,
      "max": [
        1.0,
        1.0,
        1.0
      ],
      "min": [
        -1.0,
        -1.0,
        -1.0
      ],
      "type": "VEC3"
    },
    {
      "bufferView": 1,
      "byteOffset": 24776,
      "componentType": 5126,
      "count": 2585,
      "max": [
        14.173500061035156,
        14.173500061035156
      ],
      "min": [
        -14.173500061035156,
        -2.7307469844818115
      ],
      "type": "VEC2"
    },
    {
      "bufferView": 0,
      "byteOffset": 33984,
      "componentType": 5125,
      "count": 7650,
      "type": "SCALAR"
    },
    {
      "bufferView": 2,
      "byteOffset": 136368,
      "componentType": 5126,
      "count": 2403,
      "max": [
        0.8899959921836853,
        0.3030160069465637,
        0.75
      ],
      "min": [
        -0.8899989724159241,
        -0.07199899852275848,
        0.056963000446558
      ],
      "type": "VEC3"
    },
    {
      "bufferView": 2,
      "byteOffset": 165204,
      "componentType": 5126,
      "count": 2403,
      "max": [
        1.0,
        1.0,
        1.0
      ],
      "min": [
        -1.0,
        -1.0,
        -1.0
      ],
      "type": "VEC3"
    },
    {
      "bufferView": 1,
      "byteOffset": 45456,
      "componentType": 5126,
      "count": 2403,
      "max": [
        16.8192195892334,
        14.173500061035156
      ],
      "min": [
        -16.8192195892334,
        -1.3606560230255127
      ],
      "type": "VEC2"
    },
    {
      "bufferView": 0,
      "byteOffset": 64584,
      "componentType": 5125,
      "count": 7140,
      "type": "SCALAR"
    },
    {
      "bufferView": 2,
      "byteOffset": 194040,
      "componentType": 5126,
      "count": 5095,
      "max": [
        0.7348620295524597,
        -0.07199899852275848,
        0.6337469816207886
      ],
      "min": [
        0.42244601249694824,
        -0.2889859974384308,
        0.47448599338531494
      ],
      "type": "VEC3"
    },
    {
      "bufferView": 2,
      "byteOffset": 255180,
      "componentType": 5126,
      "count": 5095,
      "max": [
        0.9999964833259583,
        1.0,
        0.9999999403953552
      ],
      "min": [
        -1.0,
        -0.9999328255653381,
        -0.9999999403953552
      ],
      "type": "VEC3"
    },
    {
      "bufferView": 1,
      "byteOffset": 64680,
      "componentType": 5126,
      "count": 5095,
      "max": [
        6.9437150955200195,
        5.9272661209106445
      ],
      "min": [
        -6.881743907928467,
        -2.7306289672851563
      ],
      "type": "VEC2"
    },
    {
      "bufferView": 0,
      "byteOffset": 93144,
      "componentType": 5125,
      "count": 26046,
      "type": "SCALAR"
    },
    {
      "bufferView": 2,
      "byteOffset": 316320,
      "componentType": 5126,
      "count": 5447,
      "max": [
        -0.42244601249694824,
        -0.06899899989366531,
        0.6337469816207886
      ],
      "min": [
        -0.7348639965057373,
        -0.2889859974384308,
        0.47448500990867615
      ],
      "type": "VEC3"
    },
    {
      "bufferView": 2,
      "byteOffset": 381684,
      "componentType": 5126,
      "count": 5447,
      "max": [
        1.0,
        1.0,
        1.0
      ],
      "min": [
        -1.0,
        -0.9999328255653381,
        -1.0
      ],
      "type": "VEC3"
    },
    {
      "bufferView": 1,
      "byteOffset": 105440,
      "componentType": 5126,
      "count": 5447,
      "max": [
        6.881743907928467,
        5.9272661209106445
      ],
      "min": [
        -6.9437150955200195,
        -2.7306289672851563
      ],
      "type": "VEC2"
    },
    {
      "bufferView": 0,
      "byteOffset": 197328,
      "componentType": 5125,
      "count": 27102,
      "type": "SCALAR"
    },
    {
      "bufferView": 2,
      "byteOffset": 447048,
      "componentType": 5126,
      "count": 3136,
      "max": [
        0.42250001430511475,
        0.2833079993724823,
        0.6379989981651306
      ],
      "min": [
        -0.42250001430511475,
        0.26252299547195435,
        0.45010000467300415
      ],
      "type": "VEC3"
    },
    {
      "bufferView": 2,
      "byteOffset": 484680,
      "componentType": 5126,
      "count": 3136,
      "max": [
        1.0,
        1.0,
        1.0
      ],
      "min": [
        -1.0,
        -1.0,
        -1.0
      ],
      "type": "VEC3"
    },
    {
      "bufferView": 0,
      "byteOffset": 305736,
      "componentType": 5125,
      "count": 9336,
      "type": "SCALAR"
    },
    {
      "bufferView": 2,
      "byteOffset": 522312,
      "componentType": 5126,
      "count": 3057,
      "max": [
        0.13650000095367432,
        0.286408007144928,
        0.628000020980835
      ],
      "min": [
        -0.4115000069141388,
        0.26252299547195435,
        0.45010000467300415
      ],
      "type": "VEC3"
    },
    {
      "bufferView": 2,
      "byteOffset": 558996,
      "componentType": 5126,
      "count": 3057,
      "max": [
        1.0,
        1.0,
        1.0
      ],
      "min": [
        -1.0,
        -1.0,
        -1.0
      ],
      "type": "VEC3"
    },
    {
      "bufferView": 0,
      "byteOffset": 343080,
      "componentType": 5125,
      "count": 9063,
      "type": "SCALAR"
    },
    {
      "bufferView": 2,
      "byteOffset": 595680,
      "componentType": 5126,
      "count": 1019,
      "max": [
        0.4115000069141388,
        0.2833079993724823,
        0.5932989716529846
      ],
      "min": [
        0.3953999876976013,
        0.26252299547195435,
        0.5752990245819092
      ],
      "type": "VEC3"
    },
    {
      "bufferView": 2,
      "byteOffset": 607908,
      "componentType": 5126,
      "count": 1019,
      "max": [
        1.0,
        1.0,
        1.0
      ],
      "min": [
        -1.0,
        -1.0,
        -1.0
      ],
      "type": "VEC3"
    },
    {
      "bufferView": 0,
      "byteOffset": 379332,
      "componentType": 5125,
      "count": 3021,
      "type": "SCALAR"
    },
    {
      "bufferView": 2,
      "byteOffset": 620136,
      "componentType": 5126,
      "count": 1505,
      "max": [
        -0.39750000834465027,
        0.2852340042591095,
        0.47144100069999695
      ],
      "min": [
        -0.4343990087509155,
        0.2605670094490051,
        0.4467580020427704
      ],
      "type": "VEC3"
    },
    {
      "bufferView": 2,
      "byteOffset": 638196,
      "componentType": 5126,
      "count": 1505,
      "max": [
        1.0,
        0.9960493445396423,
        1.0
      ],
      "min": [
        -1.0,
        -0.9984815716743469,
        -1.0
      ],
      "type": "VEC3"
    },
    {
      "bufferView": 0,
      "byteOffset": 391416,
      "componentType": 5125,
      "count": 7074,
      "type": "SCALAR"
    },
    {
      "bufferView": 2,
      "byteOffset": 656256,
      "componentType": 5126,
      "count": 1504,
      "max": [
        0.4343990087509155,
        0.2852340042591095,
        0.47144100069999695
      ],
      "min": [
        0.39750000834465027,
        0.2605670094490051,
        0.4467580020427704
      ],
      "type": "VEC3"
    },
    {
      "bufferView": 2,
      "byteOffset": 674304,
      "componentType": 5126,
      "count": 1504,
      "max": [
        1.0,
        0.9960493445396423,
        1.0
      ],
      "min": [
        -1.0,
        -0.9984815716743469,
        -1.0
      ],
      "type": "VEC3"
    },
    {
      "bufferView": 0,
      "byteOffset": 419712,
      "componentType": 5125,
      "count": 7074,
      "type": "SCALAR"
    },
    {
      "bufferView": 2,
      "byteOffset": 692352,
      "componentType": 5126,
      "count": 1504,
      "max": [
        0.4343990087509155,
        0.2852340042591095,
        0.5966410040855408
      ],
      "min": [
        0.39750000834465027,
        0.2605670094490051,
        0.5719580054283142
      ],
      "type": "VEC3"
    },
    {
      "bufferView": 2,
      "byteOffset": 710400,
      "componentType": 5126,
      "count": 1504,
      "max": [
        1.0,
        0.9960493445396423,
        1.0
      ],
      "min": [
        -1.0,
        -0.9984815716743469,
        -1.0
      ],
      "type": "VEC3"
    },
    {
      "bufferView": 0,
      "byteOffset": 448008,
      "componentType": 5125,
      "count": 7074,
      "type": "SCALAR"
    },
    {
      "bufferView": 2,
      "byteOffset": 728448,
      "componentType": 5126,
      "count": 1505,
      "max": [
        -0.39750000834465027,
        0.2852340042591095,
        0.5966410040855408
      ],
      "min": [
        -0.4343990087509155,
        0.2605670094490051,
        0.5719580054283142
      ],
      "type": "VEC3"
    },
    {
      "bufferView": 2,
      "byteOffset": 746508,
      "componentType": 5126,
      "count": 1505,
      "max": [
        1.0,
        0.9960493445396423,
        1.0
      ],
      "min": [
        -1.0,
        -0.9984815716743469,
        -1.0
      ],
      "type": "VEC3"
    },
    {
      "bufferView": 0,
      "byteOffset": 476304,
      "componentType": 5125,
      "count": 7074,
      "type": "SCALAR"
    },
    {
      "bufferView": 2,
      "byteOffset": 764568,
      "componentType": 5126,
      "count": 1504,
      "max": [
        0.1398410052061081,
        0.2883340120315552,
        0.6498990058898926
      ],
      "min": [
        0.11515799909830093,
        0.2636669874191284,
        0.6129990220069885
      ],
      "type": "VEC3"
    },
    {
      "bufferView": 2,
      "byteOffset": 782616,
      "componentType": 5126,
      "count": 1504,
      "max": [
        1.0,
        0.9960493445396423,
        1.0
      ],
      "min": [
        -1.0,
        -0.9984815716743469,
        -1.0
      ],
      "type": "VEC3"
    },
    {
      "bufferView": 0,
      "byteOffset": 504600,
      "componentType": 5125,
      "count": 7074,
      "type": "SCALAR"
    },
    {
      "bufferView": 2,
      "byteOffset": 800664,
      "componentType": 5126,
      "count": 1504,
      "max": [
        -0.11515799909830093,
        0.2883340120315552,
        0.6498990058898926
      ],
      "min": [
        -0.1398410052061081,
        0.2636669874191284,
        0.6129990220069885
      ],
      "type": "VEC3"
    },
    {
      "bufferView": 2,
      "byteOffset": 818712,
      "componentType": 5126,
      "count": 1504,
      "max": [
        1.0,
        0.9960493445396423,
        1.0
      ],
      "min": [
        -1.0,
        -0.9984815716743469,
        -1.0
      ],
      "type": "VEC3"
    },
    {
      "bufferView": 0,
      "byteOffset": 532896,
      "componentType": 5125,
      "count": 7074,
      "type": "SCALAR"
    },
    {
      "bufferView": 2,
      "byteOffset": 836760,
      "componentType": 5126,
      "count": 3195,
      "max": [
        0.8864740133285522,
        0.31629401445388794,
        0.7485250234603882
      ],
      "min": [
        -0.8854529857635498,
        -0.29399898648262024,
        0.059032000601291656
      ],
      "type": "VEC3"
    },
    {
      "bufferView": 2,
      "byteOffset": 875100,
      "componentType": 5126,
      "count": 3195,
      "max": [
        1.0,
        1.0,
        1.0
      ],
      "min": [
        -1.0,
        -1.0,
        -1.0
      ],
      "type": "VEC3"
    },
    {
      "bufferView": 1,
      "byteOffset": 149016,
      "componentType": 5126,
      "count": 3195,
      "max": [
        0.0,
        0.0
      ],
      "min": [
        0.0,
        0.0
      ],
      "type": "VEC2"
    },
    {
      "bufferView": 0,
      "byteOffset": 561192,
      "componentType": 5125,
      "count": 8292,
      "type": "SCALAR"
    },
    {
      "bufferView": 2,
      "byteOffset": 913440,
      "componentType": 5126,
      "count": 2475,
      "max": [
        0.4292919933795929,
        -0.2419700026512146,
        0.6379460096359253
      ],
      "min": [
        -0.4292919933795929,
        -0.29399898648262024,
        0.5811880230903625
      ],
      "type": "VEC3"
    },
    {
      "bufferView": 2,
      "byteOffset": 943140,
      "componentType": 5126,
      "count": 2475,
      "max": [
        1.0,
        1.0,
        1.0
      ],
      "min": [
        -1.0,
        -1.0,
        -1.0
      ],
      "type": "VEC3"
    },
    {
      "bufferView": 1,
      "byteOffset": 174576,
      "componentType": 5126,
      "count": 2475,
      "max": [
        0.0,
        0.0
      ],
      "min": [
        0.0,
        0.0
      ],
      "type": "VEC2"
    },
    {
      "bufferView": 0,
      "byteOffset": 594360,
      "componentType": 5125,
      "count": 8280,
      "type": "SCALAR"
    },
    {
      "bufferView": 2,
      "byteOffset": 972840,
      "componentType": 5126,
      "count": 2160,
      "max": [
        0.3999300003051758,
        0.28349700570106506,
        0.6164299845695496
      ],
      "min": [
        -0.3999300003051758,
        0.2654159963130951,
        0.4516049921512604
      ],
      "type": "VEC3"
    },
    {
      "bufferView": 2,
      "byteOffset": 998760,
      "componentType": 5126,
      "count": 2160,
      "max": [
        1.0,
        1.0,
        1.0
      ],
      "min": [
        -1.0,
        -1.0,
        -1.0
      ],
      "type": "VEC3"
    },
    {
      "bufferView": 0,
      "byteOffset": 627480,
      "componentType": 5125,
      "count": 6480,
      "type": "SCALAR"
    },
    {
      "bufferView": 2,
      "byteOffset": 1024680,
      "componentType": 5126,
      "count": 958,
      "max": [
        0.3774990141391754,
        0.3030160069465637,
        0.6589949727058411
      ],
      "min": [
        -0.3774990141391754,
        -0.003000000026077032,
        0.42800000309944153
      ],
      "type": "VEC3"
    },
    {
      "bufferView": 2,
      "byteOffset": 1036176,
      "componentType": 5126,
      "count": 958,
      "max": [
        1.0,
        1.0,
        1.0
      ],
      "min": [
        -1.0,
        -1.0,
        -1.0
      ],
      "type": "VEC3"
    },
    {
      "bufferView": 0,
      "byteOffset": 653400,
      "componentType": 5125,
      "count": 2844,
      "type": "SCALAR"
    }
  ],
  "asset": {
    "extras": {
      "author": "T-FLEX CAD ST (Free) (https://sketchfab.com/tflexcad)",
      "license": "CC-BY-4.0 (http://creativecommons.org/licenses/by/4.0/)",
      "source": "https://sketchfab.com/3d-models/offroad-bumper-8a4c61ccd67e482ca56dd10614b18023",
      "title": "Offroad Bumper"
    },
    "generator": "Sketchfab-12.67.0",
    "version": "2.0"
  },
  "bufferViews": [
    {
      "buffer": 0,
      "byteLength": 664776,
      "name": "floatBufferViews",
      "target": 34963
    },
    {
      "buffer": 0,
      "byteLength": 194376,
      "byteOffset": 664776,
      "byteStride": 8,
      "name": "floatBufferViews",
      "target": 34962
    },
    {
      "buffer": 0,
      "byteLength": 1047672,
      "byteOffset": 859152,
      "byteStride": 12,
      "name": "floatBufferViews",
      "target": 34962
    }
  ],
  "buffers": [
    {
      "byteLength": 1906824,
      "uri": "scene.bin"
    }
  ],
  "images": [
    {
      "uri": "textures/AppC5_0_baseColor.jpeg"
    }
  ],
  "materials": [
    {
      "doubleSided": true,
      "name": "AppC5",
      "pbrMetallicRoughness": {
        "baseColorFactor": [
          0.020364111168051702,
          0.020364111168051702,
          0.020364111168051702,
          1.0
        ],
        "metallicFactor": 0.5426625185792551,
        "roughnessFactor": 0.4762054059490468
      }
    },
    {
      "doubleSided": true,
      "name": "App82",
      "pbrMetallicRoughness": {
        "baseColorFactor": [
          0.713725,
          0.713725,
          0.713725,
          1.0
        ],
        "roughnessFactor": 0.0
      }
    },
    {
      "doubleSided": true,
      "name": "AppC5_0",
      "pbrMetallicRoughness": {
        "baseColorFactor": [
          0.2093291852,
          0.2093291852,
          0.2093291852,
          1.0
        ],
        "baseColorTexture": {
          "index": 0
        },
        "roughnessFactor": 0.28123685249999997
      }
    },
    {
      "doubleSided": true,
      "name": "AppB3",
      "pbrMetallicRoughness": {
        "baseColorFactor": [
          0.698039,
          0.698039,
          0.698039,
          1.0
        ],
        "roughnessFactor": 0.0
      }
    },
    {
      "doubleSided": true,
      "name": "App31",
      "pbrMetallicRoughness": {
        "baseColorFactor": [
          0.639215,
          0.619607,
          0.596078,
          1.0
        ],
        "roughnessFactor": 0.0
      }
    }
  ],
  "meshes": [
    {
      "name": "Object_0",
      "primitives": [
        {
          "attributes": {
            "NORMAL": 1,
            "POSITION": 0,
            "TEXCOORD_0": 2
          },
          "indices": 3,
          "material": 0,
          "mode": 4
        }
      ]
    },
    {
      "name": "Object_1",
      "primitives": [
        {
          "attributes": {
            "NORMAL": 5,
            "POSITION": 4,
            "TEXCOORD_0": 6
          },
          "indices": 7,
          "material": 0,
          "mode": 4
        }
      ]
    },
    {
      "name": "Object_2",
      "primitives": [
        {
          "attributes": {
            "NORMAL": 9,
            "POSITION": 8,
            "TEXCOORD_0": 10
          },
          "indices": 11,
          "material": 0,
          "mode": 4
        }
      ]
    },
    {
      "name": "Object_3",
      "primitives": [
        {
          "attributes": {
            "NORMAL": 13,
            "POSITION": 12,
            "TEXCOORD_0": 14
          },
          "indices": 15,
          "material": 0,
          "mode": 4
        }
      ]
    },
    {
      "name": "Object_4",
      "primitives": [
        {
          "attributes": {
            "NORMAL": 17,
            "POSITION": 16,
            "TEXCOORD_0": 18
          },
          "indices": 19,
          "material": 0,
          "mode": 4
        }
      ]
    },
    {
      "name": "Object_5",
      "primitives": [
        {
          "attributes": {
            "NORMAL": 21,
            "POSITION": 20
          },
          "indices": 22,
          "material": 1,
          "mode": 4
        }
      ]
    },
    {
      "name": "Object_6",
      "primitives": [
        {
          "attributes": {
            "NORMAL": 24,
            "POSITION": 23
          },
          "indices": 25,
          "material": 1,
          "mode": 4
        }
      ]
    },
    {
      "name": "Object_7",
      "primitives": [
        {
          "attributes": {
            "NORMAL": 27,
            "POSITION": 26
          },
          "indices": 28,
          "material": 1,
          "mode": 4
        }
      ]
    },
    {
      "name": "Object_8",
      "primitives": [
        {
          "attributes": {
            "NORMAL": 30,
            "POSITION": 29
          },
          "indices": 31,
          "material": 1,
          "mode": 4
        }
      ]
    },
    {
      "name": "Object_9",
      "primitives": [
        {
          "attributes": {
            "NORMAL": 33,
            "POSITION": 32
          },
          "indices": 34,
          "material": 1,
          "mode": 4
        }
      ]
    },
    {
      "name": "Object_10",
      "primitives": [
        {
          "attributes": {
            "NORMAL": 36,
            "POSITION": 35
          },
          "indices": 37,
          "material": 1,
          "mode": 4
        }
      ]
    },
    {
      "name": "Object_11",
      "primitives": [
        {
          "attributes": {
            "NORMAL": 39,
            "POSITION": 38
          },
          "indices": 40,
          "material": 1,
          "mode": 4
        }
      ]
    },
    {
      "name": "Object_12",
      "primitives": [
        {
          "attributes": {
            "NORMAL": 42,
            "POSITION": 41
          },
          "indices": 43,
          "material": 1,
          "mode": 4
        }
      ]
    },
    {
      "name": "Object_13",
      "primitives": [
        {
          "attributes": {
            "NORMAL": 45,
            "POSITION": 44
          },
          "indices": 46,
          "material": 1,
          "mode": 4
        }
      ]
    },
    {
      "name": "Object_14",
      "primitives": [
        {
          "attributes": {
            "NORMAL": 48,
            "POSITION": 47,
            "TEXCOORD_0": 49
          },
          "indices": 50,
          "material": 2,
          "mode": 4
        }
      ]
    },
    {
      "name": "Object_15",
      "primitives": [
        {
          "attributes": {
            "NORMAL": 52,
            "POSITION": 51,
            "TEXCOORD_0": 53
          },
          "indices": 54,
          "material": 2,
          "mode": 4
        }
      ]
    },
    {
      "name": "Object_16",
      "primitives": [
        {
          "attributes": {
            "NORMAL": 56,
            "POSITION": 55
          },
          "indices": 57,
          "material": 3,
          "mode": 4
        }
      ]
    },
    {
      "name": "Object_17",
      "primitives": [
        {
          "attributes": {
            "NORMAL": 59,
            "POSITION": 58
          },
          "indices": 60,
          "material": 4,
          "mode": 4
        }
      ]
    }
  ],
  "nodes": [
    {
      "children": [
        1
      ],
      "matrix": [
        -1.0,
        0.0,
        0.0,
        0.0,
        0.0,
        -1.0,
        -2.220446049250313e-16,
        0.0,
        0.0,
        -2.220446049250313e-16,
        1.0,
        0.0,
        -3.576300059648929e-06,
        0.43879112601280224,
        -0.438791126012802,
        1.0
      ],
      "name": "Sketchfab_model"
    },
    {
      "children": [
        2,
        3,
        4,
        5,
        6,
        7,
        8,
        9,
        10,
        11,
        12,
        13,
        14,
        15,
        16,
        17,
        18,
        19
      ],
      "name": "Bumper.obj.cleaner.materialmerger.gles"
    },
    {
      "mesh": 0,
      "name": "Object_2"
    },
    {
      "mesh": 1,
      "name": "Object_3"
    },
    {
      "mesh": 2,
      "name": "Object_4"
    },
    {
      "mesh": 3,
      "name": "Object_5"
    },
    {
      "mesh": 4,
      "name": "Object_6"
    },
    {
      "mesh": 5,
      "name": "Object_7"
    },
    {
      "mesh": 6,
      "name": "Object_8"
    },
    {
      "mesh": 7,
      "name": "Object_9"
    },
    {
      "mesh": 8,
      "name": "Object_10"
    },
    {
      "mesh": 9,
      "name": "Object_11"
    },
    {
      "mesh": 10,
      "name": "Object_12"
    },
    {
      "mesh": 11,
      "name": "Object_13"
    },
    {
      "mesh": 12,
      "name": "Object_14"
    },
    {
      "mesh": 13,
      "name": "Object_15"
    },
    {
      "mesh": 14,
      "name": "Object_16"
    },
    {
      "mesh": 15,
      "name": "Object_17"
    },
    {
      "mesh": 16,
      "name": "Object_18"
    },
    {
      "mesh": 17,
      "name": "Object_19"
    }
  ],
  "samplers": [
    {
      "magFilter": 9729,
      "minFilter": 9987,
      "wrapS": 10497,
      "wrapT": 10497
    }
  ],
  "scene": 0,
  "scenes": [
    {
      "name": "Sketchfab_Scene",
      "nodes": [
        0
      ]
    }
  ],
  "textures": [
    {
      "sampler": 0,
      "source": 0
    }
  ]
}
